<svg xmlns="http://www.w3.org/2000/svg" viewBox="0 0 128 108" fill="none" role="img" aria-label="HiEvent">
  <!-- Half location pin (left) -->
  <path
    fill="#00D4E8"
    d="M54 6
       C30 6 12 26 12 48
       C12 72 40 96 54 106
       V6 Z"
  />
  <circle cx="38" cy="44" r="13" fill="#FFFFFF" />

  <!-- Tallest figure — cyan -->
  <circle cx="66" cy="30" r="10" fill="#00D4E8" />
  <path d="M56 42 h20 a4 4 0 0 1 4 4 v52 a4 4 0 0 1 -4 4 h-20 a4 4 0 0 1 -4 -4 V46 a4 4 0 0 1 4 -4 Z" fill="#00D4E8" />

  <!-- Middle figure — navy -->
  <circle cx="90" cy="36" r="8" fill="#1B2A4A" />
  <path d="M82 46 h16 a3.5 3.5 0 0 1 3.5 3.5 v48.5 a3.5 3.5 0 0 1 -3.5 3.5 h-16 a3.5 3.5 0 0 1 -3.5 -3.5 V49.5 a3.5 3.5 0 0 1 3.5 -3.5 Z" fill="#1B2A4A" />

  <!-- Shortest figure — grey -->
  <circle cx="110" cy="42" r="6.5" fill="#9CA3AF" />
  <path d="M103.5 50.5 h13 a3 3 0 0 1 3 3 V98 a3 3 0 0 1 -3 3 h-13 a3 3 0 0 1 -3 -3 V53.5 a3 3 0 0 1 3 -3 Z" fill="#9CA3AF" />
</svg>
